<svg id="75138f99-6fec-4a59-9ad7-5a41371ba429" data-name="root" xmlns="http://www.w3.org/2000/svg" xmlns:xlink="http://www.w3.org/1999/xlink" viewBox="0 0 512 512"><defs><linearGradient id="17ae2c6f-b425-47dc-98ec-3e52b38446d1" x1="181.95" y1="12.73" x2="230.47" y2="12.73" gradientTransform="matrix(0.83, -0.34, -0.36, -0.78, 69.93, 321.73)" gradientUnits="userSpaceOnUse"><stop offset="0" stop-color="blue"/><stop offset="0.16" stop-color="#212fd2"/><stop offset="0.37" stop-color="#47649e"/><stop offset="0.57" stop-color="#658e75"/><stop offset="0.74" stop-color="#7aad57"/><stop offset="0.89" stop-color="#87bf45"/><stop offset="1" stop-color="#8cc63f"/></linearGradient></defs><title>afv</title><rect width="512" height="512" style="fill:none"/><g id="1af3f63d-b817-4121-922a-9e919996190b" data-name="238c832e-de65-4258-9f91-a7685b1e326e"><polygon points="249.21 260.32 235.46 253.24 221.81 260.53 224.32 245.29 213.17 234.6 228.47 232.26 235.22 218.37 242.17 232.16 257.5 234.26 246.49 245.12 249.21 260.32" style="stroke:#000;stroke-miterlimit:10;fill:url(#17ae2c6f-b425-47dc-98ec-3e52b38446d1)"/><ellipse cx="235.33" cy="241.28" rx="22.16" ry="23.46" style="fill:none;stroke:#000;stroke-miterlimit:10;stroke-width:3px"/><rect x="265.33" y="221.86" width="35.17" height="35.17" rx="11.63" ry="11.63" style="fill:#fc0;stroke:#000;stroke-miterlimit:10;stroke-width:3px"/><rect x="308.34" y="222.65" width="37.24" height="37.24" rx="13.26" ry="13.26" style="fill:#00d409;stroke:#000;stroke-miterlimit:10;stroke-width:3px"/><rect x="308.34" y="133.17" width="37.24" height="37.24" rx="13.26" ry="13.26" style="fill:#00d409;stroke:#000;stroke-miterlimit:10;stroke-width:3px"/><rect x="216.71" y="175.74" width="37.24" height="37.24" rx="13.26" ry="13.26" style="fill:red;stroke:#000;stroke-miterlimit:10;stroke-width:3px"/><rect x="171.31" y="222.65" width="37.24" height="37.24" rx="13.26" ry="13.26" style="fill:#fc0;stroke:#000;stroke-miterlimit:10;stroke-width:3px"/><rect x="125.15" y="223.69" width="37.24" height="37.24" rx="13.26" ry="13.26" style="fill:#00d409;stroke:#000;stroke-miterlimit:10;stroke-width:3px"/><rect x="352.13" y="223.69" width="37.24" height="37.24" rx="13.26" ry="13.26" style="fill:#00d409;stroke:#000;stroke-miterlimit:10;stroke-width:3px"/><rect x="171.31" y="177.81" width="37.24" height="37.24" rx="13.26" ry="13.26" style="fill:#fc0;stroke:#000;stroke-miterlimit:10;stroke-width:3px"/><rect x="79" y="223.69" width="37.24" height="37.24" rx="13.26" ry="13.26" style="fill:#00d409;stroke:#000;stroke-miterlimit:10;stroke-width:3px"/><rect x="308.27" y="312.13" width="37.24" height="37.24" rx="13.26" ry="13.26" style="fill:#00d409;stroke:#000;stroke-miterlimit:10;stroke-width:3px"/><rect x="125.15" y="315.84" width="37.24" height="37.24" rx="13.26" ry="13.26" style="fill:#00d409;stroke:#000;stroke-miterlimit:10;stroke-width:3px"/><rect x="125.15" y="133.17" width="37.24" height="37.24" rx="13.26" ry="13.26" style="fill:#00d409;stroke:#000;stroke-miterlimit:10;stroke-width:3px"/><rect x="79" y="362.12" width="37.24" height="37.24" rx="13.26" ry="13.26" style="fill:#00d409;stroke:#000;stroke-miterlimit:10;stroke-width:3px"/><rect x="171.31" y="269.57" width="37.24" height="37.24" rx="13.26" ry="13.26" style="fill:#fc0;stroke:#000;stroke-miterlimit:10;stroke-width:3px"/><rect x="79" y="87.5" width="37.24" height="37.24" rx="13.26" ry="13.26" style="fill:#00d409;stroke:#000;stroke-miterlimit:10;stroke-width:3px"/><rect x="265.33" y="178.85" width="35.17" height="35.17" rx="11.63" ry="11.63" style="fill:#fc0;stroke:#000;stroke-miterlimit:10;stroke-width:3px"/><rect x="354.2" y="88.54" width="35.17" height="35.17" rx="11.63" ry="11.63" style="fill:#00d409;stroke:#000;stroke-miterlimit:10;stroke-width:3px"/><rect x="353.17" y="362.12" width="37.24" height="37.24" rx="13.26" ry="13.26" style="fill:#00d409;stroke:#000;stroke-miterlimit:10;stroke-width:3px"/><rect x="216.71" y="269.57" width="37.24" height="37.24" rx="13.26" ry="13.26" style="fill:red;stroke:#000;stroke-miterlimit:10;stroke-width:3px"/><rect x="264.3" y="269.57" width="37.24" height="37.24" rx="13.26" ry="13.26" style="fill:#fc0;stroke:#000;stroke-miterlimit:10;stroke-width:3px"/></g></svg>