<svg id="e7402e2b-7f40-4fcc-96e2-5df60624bb54" data-name="88736298-3161-4ace-9d73-230775793c96" xmlns="http://www.w3.org/2000/svg" xmlns:xlink="http://www.w3.org/1999/xlink" viewBox="0 0 512 512"><defs><linearGradient id="de288a60-84ad-497e-a550-ef3ff15e733d" x1="182.2" y1="4.35" x2="230.72" y2="4.35" gradientTransform="matrix(0.83, -0.34, -0.36, -0.78, 88.41, 333.9)" gradientUnits="userSpaceOnUse"><stop offset="0" stop-color="blue"/><stop offset="0.16" stop-color="#212fd2"/><stop offset="0.37" stop-color="#47649e"/><stop offset="0.57" stop-color="#658e75"/><stop offset="0.74" stop-color="#7aad57"/><stop offset="0.89" stop-color="#87bf45"/><stop offset="1" stop-color="#8cc63f"/></linearGradient></defs><title>antiaircraft</title><polygon points="270.92 278.95 257.17 271.87 243.52 279.16 246.04 263.92 234.88 253.23 250.18 250.89 256.93 236.99 263.88 250.79 279.21 252.89 268.2 263.75 270.92 278.95" style="stroke:#000;stroke-miterlimit:10;fill:url(#de288a60-84ad-497e-a550-ef3ff15e733d)"/><ellipse cx="257.04" cy="259.9" rx="22.16" ry="23.46" style="fill:none;stroke:#000;stroke-miterlimit:10;stroke-width:3px"/><rect x="331.09" y="242.32" width="35.17" height="35.17" rx="11.63" ry="11.63" style="fill:#fc0;stroke:#000;stroke-miterlimit:10;stroke-width:3px"/><rect x="372.55" y="237.38" width="37.24" height="37.24" rx="13.26" ry="13.26" style="fill:#00d409;stroke:#000;stroke-miterlimit:10;stroke-width:3px"/><rect x="238.42" y="194.37" width="37.24" height="37.24" rx="13.08" ry="13.08" style="fill:#00d409;stroke:#000;stroke-miterlimit:10;stroke-width:3px"/><rect x="141.43" y="242.48" width="37.24" height="37.24" rx="13.26" ry="13.26" style="fill:#fc0;stroke:#000;stroke-miterlimit:10;stroke-width:3px"/><rect x="91.99" y="242.48" width="37.24" height="37.24" rx="13.26" ry="13.26" style="fill:#00d409;stroke:#000;stroke-miterlimit:10;stroke-width:3px"/><rect x="286.01" y="239.46" width="37.24" height="37.24" rx="13.26" ry="13.26" style="fill:#00d409;stroke:#000;stroke-miterlimit:10;stroke-width:3px"/><rect x="237.38" y="288.19" width="37.24" height="37.24" rx="13.26" ry="13.26" style="fill:#00d409;stroke:#000;stroke-miterlimit:10;stroke-width:3px"/><rect x="234.88" y="376.85" width="37.24" height="37.24" rx="13.26" ry="13.26" style="fill:#00d409;stroke:#000;stroke-miterlimit:10;stroke-width:3px"/><rect x="190.87" y="244.7" width="37.24" height="37.24" rx="13.26" ry="13.26" style="fill:#00d409;stroke:#000;stroke-miterlimit:10;stroke-width:3px"/><rect x="238.42" y="148.5" width="35.17" height="35.17" rx="11.63" ry="11.63" style="fill:#fc0;stroke:#000;stroke-miterlimit:10;stroke-width:3px"/><rect x="243.79" y="102.62" width="35.17" height="35.17" rx="11.87" ry="11.87" style="fill:#00d409;stroke:#000;stroke-miterlimit:10;stroke-width:3px"/><rect x="234.88" y="332.52" width="37.24" height="37.24" rx="13.26" ry="13.26" style="fill:#fc0;stroke:#000;stroke-miterlimit:10;stroke-width:3px"/><rect x="331.09" y="334.47" width="37.24" height="37.24" rx="13.26" ry="13.26" style="fill:red;stroke:#000;stroke-miterlimit:10;stroke-width:3px"/><rect x="329.02" y="288.19" width="37.24" height="37.24" rx="13.26" ry="13.26" style="fill:red;stroke:#000;stroke-miterlimit:10;stroke-width:3px"/><rect x="284.76" y="334.47" width="37.24" height="37.24" rx="13.26" ry="13.26" style="fill:red;stroke:#000;stroke-miterlimit:10;stroke-width:3px"/><rect x="329.02" y="194.37" width="37.24" height="37.24" rx="13.26" ry="13.26" style="fill:red;stroke:#000;stroke-miterlimit:10;stroke-width:3px"/><rect x="331.09" y="147.46" width="37.24" height="37.24" rx="13.26" ry="13.26" style="fill:red;stroke:#000;stroke-miterlimit:10;stroke-width:3px"/><rect x="286.01" y="147.46" width="37.24" height="37.24" rx="13.26" ry="13.26" style="fill:red;stroke:#000;stroke-miterlimit:10;stroke-width:3px"/><rect x="146.83" y="332.52" width="37.24" height="37.24" rx="13.26" ry="13.26" style="fill:red;stroke:#000;stroke-miterlimit:10;stroke-width:3px"/><rect x="144.76" y="286.25" width="37.24" height="37.24" rx="13.26" ry="13.26" style="fill:red;stroke:#000;stroke-miterlimit:10;stroke-width:3px"/><rect x="190.87" y="332.52" width="37.24" height="37.24" rx="13.26" ry="13.26" style="fill:red;stroke:#000;stroke-miterlimit:10;stroke-width:3px"/><rect x="144.76" y="198.71" width="37.24" height="37.24" rx="13.26" ry="13.26" style="fill:red;stroke:#000;stroke-miterlimit:10;stroke-width:3px"/><rect x="145.79" y="150.77" width="37.24" height="37.24" rx="13.26" ry="13.26" style="fill:red;stroke:#000;stroke-miterlimit:10;stroke-width:3px"/><rect x="190.87" y="150.77" width="37.24" height="37.24" rx="13.26" ry="13.26" style="fill:red;stroke:#000;stroke-miterlimit:10;stroke-width:3px"/><rect width="512" height="512" style="fill:none"/></svg>