<svg id="f1fd4266-1b7e-4d94-b509-ca112570fb43" data-name="407d447d-7b1e-4e6b-afb9-568d8203ee0c" xmlns="http://www.w3.org/2000/svg" xmlns:xlink="http://www.w3.org/1999/xlink" viewBox="0 0 512 512"><defs><linearGradient id="7ea2e1ab-12ea-4ec7-929a-d2113018ec68" x1="202.69" y1="116.41" x2="251.21" y2="116.41" gradientTransform="matrix(0.83, -0.34, -0.36, -0.78, 113.19, 421.37)" gradientUnits="userSpaceOnUse"><stop offset="0" stop-color="blue"/><stop offset="0.16" stop-color="#212fd2"/><stop offset="0.37" stop-color="#47649e"/><stop offset="0.57" stop-color="#658e75"/><stop offset="0.74" stop-color="#7aad57"/><stop offset="0.89" stop-color="#87bf45"/><stop offset="1" stop-color="#8cc63f"/></linearGradient></defs><title>artillery</title><polygon points="272.35 272.05 258.61 264.96 244.96 272.26 247.47 257.02 236.31 246.33 251.61 243.99 258.37 230.09 265.31 243.88 280.64 245.98 269.63 256.85 272.35 272.05" style="stroke:#000;stroke-miterlimit:10;fill:url(#7ea2e1ab-12ea-4ec7-929a-d2113018ec68)"/><ellipse cx="258.47" cy="253" rx="22.16" ry="23.46" style="fill:none;stroke:#000;stroke-miterlimit:10;stroke-width:3px"/><rect x="285.25" y="235.41" width="35.17" height="35.17" rx="11.63" ry="11.63" style="fill:#00d409;stroke:#000;stroke-miterlimit:10;stroke-width:3px"/><rect x="331.49" y="234.38" width="37.24" height="37.24" rx="13.26" ry="13.26" style="fill:#00d409;stroke:#000;stroke-miterlimit:10;stroke-width:3px"/><rect x="239.85" y="189.54" width="37.24" height="37.24" rx="13.26" ry="13.26" style="fill:#00d409;stroke:#000;stroke-miterlimit:10;stroke-width:3px"/><rect x="239.85" y="281.29" width="37.24" height="37.24" rx="13.26" ry="13.26" style="fill:#00d409;stroke:#000;stroke-miterlimit:10;stroke-width:3px"/><rect x="194.45" y="234.38" width="37.24" height="37.24" rx="13.26" ry="13.26" style="fill:#00d409;stroke:#000;stroke-miterlimit:10;stroke-width:3px"/><rect x="148.3" y="235.41" width="37.24" height="37.24" rx="13.26" ry="13.26" style="fill:#00d409;stroke:#000;stroke-miterlimit:10;stroke-width:3px"/><rect x="375.27" y="235.41" width="37.24" height="37.24" rx="13.26" ry="13.26" style="fill:none;stroke:#000;stroke-miterlimit:10;stroke-width:3px"/><rect x="239.85" y="144.9" width="37.24" height="37.24" rx="13.26" ry="13.26" style="fill:#00d409;stroke:#000;stroke-miterlimit:10;stroke-width:3px"/><rect x="102.14" y="235.41" width="37.24" height="37.24" rx="13.26" ry="13.26" style="fill:none;stroke:#000;stroke-miterlimit:10;stroke-width:3px"/><rect x="239.85" y="327.57" width="37.24" height="37.24" rx="13.26" ry="13.26" style="fill:#00d409;stroke:#000;stroke-miterlimit:10;stroke-width:3px"/><rect x="236.22" y="420.12" width="37.24" height="37.24" rx="13.26" ry="13.26" style="fill:red;stroke:#000;stroke-miterlimit:10;stroke-width:3px"/><rect x="242.17" y="100.26" width="37.24" height="37.24" rx="13.26" ry="13.26" style="fill:none;stroke:#000;stroke-miterlimit:10;stroke-width:3px"/><rect x="239.85" y="373.84" width="37.24" height="37.24" rx="13.26" ry="13.26" style="fill:none;stroke:#000;stroke-miterlimit:10;stroke-width:3px"/><rect x="55.99" y="232.55" width="37.24" height="37.24" rx="13.26" ry="13.26" style="fill:red;stroke:#000;stroke-miterlimit:10;stroke-width:3px"/><rect x="419.06" y="237.8" width="37.24" height="37.24" rx="13.26" ry="13.26" style="fill:red;stroke:#000;stroke-miterlimit:10;stroke-width:3px"/><rect x="244.18" y="55.62" width="37.24" height="37.24" rx="13.26" ry="13.26" style="fill:red;stroke:#000;stroke-miterlimit:10;stroke-width:3px"/><rect width="512" height="512" style="fill:none"/></svg>