<svg id="c6305f94-47e6-49ed-bc85-281f97e421eb" data-name="ebe12632-9104-47ad-8ceb-6db96ae15f61" xmlns="http://www.w3.org/2000/svg" xmlns:xlink="http://www.w3.org/1999/xlink" viewBox="0 0 512 512"><defs><linearGradient id="3ec1d252-1787-4500-b68c-41e9bb52749f" x1="224.97" y1="239.44" x2="273.49" y2="239.44" gradientTransform="matrix(0.83, -0.34, -0.36, -0.78, 140.17, 530.72)" gradientUnits="userSpaceOnUse"><stop offset="0" stop-color="blue"/><stop offset="0.16" stop-color="#212fd2"/><stop offset="0.37" stop-color="#47649e"/><stop offset="0.57" stop-color="#658e75"/><stop offset="0.74" stop-color="#7aad57"/><stop offset="0.89" stop-color="#87bf45"/><stop offset="1" stop-color="#8cc63f"/></linearGradient></defs><title>fighter</title><polygon points="273.54 277.86 259.79 270.78 246.14 278.07 248.65 262.83 237.5 252.14 252.8 249.8 259.55 235.9 266.49 249.69 281.82 251.8 270.82 262.66 273.54 277.86" style="stroke:#000;stroke-miterlimit:10;fill:url(#3ec1d252-1787-4500-b68c-41e9bb52749f)"/><ellipse cx="259.66" cy="258.81" rx="22.16" ry="23.46" style="fill:none;stroke:#000;stroke-miterlimit:10;stroke-width:3px"/><rect x="287.59" y="196.64" width="37.24" height="37.24" rx="13.08" ry="13.08" style="fill:#fc0;stroke:#000;stroke-miterlimit:10;stroke-width:3px"/><rect x="379.16" y="375.76" width="37.24" height="37.24" rx="13.26" ry="13.26" style="fill:#41c241;stroke:#000;stroke-miterlimit:10;stroke-width:3px"/><rect x="96.97" y="101.53" width="37.24" height="37.24" rx="13.4" ry="13.4" style="fill:#41c241;stroke:#000;stroke-miterlimit:10;stroke-width:3px"/><rect x="197.63" y="288.18" width="37.24" height="37.24" rx="13.26" ry="13.26" style="fill:#fc0;stroke:#000;stroke-miterlimit:10;stroke-width:3px"/><rect x="197.63" y="196.64" width="37.24" height="37.24" rx="13.26" ry="13.26" style="fill:#fc0;stroke:#000;stroke-miterlimit:10;stroke-width:3px"/><rect x="289.66" y="286.19" width="35.17" height="35.17" rx="11.63" ry="11.63" style="fill:#fc0;stroke:#000;stroke-miterlimit:10;stroke-width:3px"/><rect x="96.97" y="375.76" width="37.24" height="37.24" rx="13.26" ry="13.26" style="fill:#41c241;stroke:#000;stroke-miterlimit:10;stroke-width:3px"/><rect x="333.71" y="333.38" width="37.24" height="37.24" rx="13.26" ry="13.26" style="fill:#41c241;stroke:#000;stroke-miterlimit:10;stroke-width:3px"/><rect x="375.42" y="100.49" width="37.24" height="37.24" rx="13.26" ry="13.26" style="fill:#41c241;stroke:#000;stroke-miterlimit:10;stroke-width:3px"/><rect x="333.71" y="146.37" width="37.24" height="37.24" rx="13.26" ry="13.26" style="fill:#41c241;stroke:#000;stroke-miterlimit:10;stroke-width:3px"/><rect x="149.44" y="331.43" width="37.24" height="37.24" rx="13.26" ry="13.26" style="fill:#41c241;stroke:#000;stroke-miterlimit:10;stroke-width:3px"/><rect x="148.41" y="149.67" width="37.24" height="37.24" rx="13.26" ry="13.26" style="fill:#41c241;stroke:#000;stroke-miterlimit:10;stroke-width:3px"/><rect x="243.13" y="196.64" width="37.24" height="37.24" rx="13.26" ry="13.26" style="fill:#fc0;stroke:#000;stroke-miterlimit:10;stroke-width:3px"/><rect x="197.63" y="242.41" width="37.24" height="37.24" rx="13.26" ry="13.26" style="fill:#fc0;stroke:#000;stroke-miterlimit:10;stroke-width:3px"/><rect x="241.04" y="285.15" width="37.24" height="37.24" rx="13.26" ry="13.26" style="fill:#fc0;stroke:#000;stroke-miterlimit:10;stroke-width:3px"/><rect x="288.63" y="242.41" width="37.24" height="37.24" rx="13.26" ry="13.26" style="fill:#fc0;stroke:#000;stroke-miterlimit:10;stroke-width:3px"/><rect x="332.21" y="244.64" width="37.24" height="37.24" rx="13.26" ry="13.26" style="fill:#fc0;stroke:#000;stroke-miterlimit:10;stroke-width:3px"/><rect x="375.42" y="244.64" width="37.24" height="37.24" rx="13.26" ry="13.26" style="fill:#41c241;stroke:#000;stroke-miterlimit:10;stroke-width:3px"/><rect x="241.57" y="329.48" width="37.24" height="37.24" rx="13.26" ry="13.26" style="fill:#fc0;stroke:#000;stroke-miterlimit:10;stroke-width:3px"/><rect x="241.57" y="375.76" width="37.24" height="37.24" rx="13.26" ry="13.26" style="fill:#41c241;stroke:#000;stroke-miterlimit:10;stroke-width:3px"/><rect x="147.3" y="242.41" width="37.24" height="37.24" rx="13.26" ry="13.26" style="fill:#fc0;stroke:#000;stroke-miterlimit:10;stroke-width:3px"/><rect x="96.97" y="242.41" width="37.24" height="37.24" rx="13.26" ry="13.26" style="fill:#41c241;stroke:#000;stroke-miterlimit:10;stroke-width:3px"/><rect x="241.04" y="150.9" width="37.24" height="37.24" rx="13.26" ry="13.26" style="fill:#fc0;stroke:#000;stroke-miterlimit:10;stroke-width:3px"/><rect x="241.04" y="101.53" width="37.24" height="37.24" rx="13.26" ry="13.26" style="fill:#41c241;stroke:#000;stroke-miterlimit:10;stroke-width:3px"/><rect x="422.61" y="52.18" width="37.24" height="37.24" rx="13.26" ry="13.26" style="fill:#41c241;stroke:#000;stroke-miterlimit:10;stroke-width:3px"/><rect x="467.58" y="6.62" width="37.24" height="37.24" rx="13.26" ry="13.26" style="fill:#41c241;stroke:#000;stroke-miterlimit:10;stroke-width:3px"/><rect x="422.61" y="421.86" width="37.24" height="37.24" rx="13.26" ry="13.26" style="fill:#41c241;stroke:#000;stroke-miterlimit:10;stroke-width:3px"/><rect x="467.58" y="468.01" width="37.24" height="37.24" rx="13.26" ry="13.26" style="fill:#41c241;stroke:#000;stroke-miterlimit:10;stroke-width:3px"/><rect x="422.61" y="244.64" width="37.24" height="37.24" rx="13.26" ry="13.26" style="fill:#41c241;stroke:#000;stroke-miterlimit:10;stroke-width:3px"/><rect x="467.58" y="244.64" width="37.24" height="37.24" rx="13.26" ry="13.26" style="fill:#41c241;stroke:#000;stroke-miterlimit:10;stroke-width:3px"/><rect x="243.13" y="52.15" width="37.24" height="37.24" rx="13.26" ry="13.26" style="fill:#41c241;stroke:#000;stroke-miterlimit:10;stroke-width:3px"/><rect x="245.37" y="6.62" width="37.24" height="37.24" rx="13.26" ry="13.26" style="fill:#41c241;stroke:#000;stroke-miterlimit:10;stroke-width:3px"/><rect x="51.01" y="52.15" width="37.24" height="37.24" rx="13.26" ry="13.26" style="fill:#41c241;stroke:#000;stroke-miterlimit:10;stroke-width:3px"/><rect x="7.99" y="6.62" width="37.24" height="37.24" rx="13.26" ry="13.26" style="fill:#41c241;stroke:#000;stroke-miterlimit:10;stroke-width:3px"/><rect x="51.01" y="242.41" width="37.24" height="37.24" rx="13.26" ry="13.26" style="fill:#41c241;stroke:#000;stroke-miterlimit:10;stroke-width:3px"/><rect x="7.99" y="244.64" width="37.24" height="37.24" rx="11.86" ry="11.86" style="fill:#41c241;stroke:#000;stroke-miterlimit:10;stroke-width:3px"/><rect x="51.01" y="421.86" width="37.24" height="37.24" rx="13.26" ry="13.26" style="fill:#41c241;stroke:#000;stroke-miterlimit:10;stroke-width:3px"/><rect x="10.96" y="468.01" width="37.24" height="37.24" rx="13.26" ry="13.26" style="fill:#41c241;stroke:#000;stroke-miterlimit:10;stroke-width:3px"/><rect x="241.04" y="419.67" width="37.24" height="37.24" rx="13.26" ry="13.26" style="fill:#41c241;stroke:#000;stroke-miterlimit:10;stroke-width:3px"/><rect x="241.57" y="468.01" width="37.24" height="37.24" rx="13.26" ry="13.26" style="fill:#41c241;stroke:#000;stroke-miterlimit:10;stroke-width:3px"/><rect width="512" height="512" style="fill:none"/></svg>