<svg id="8120eccd-0c03-4875-81c2-215ad7177f85" data-name="146993f6-6a09-4e1f-b1d9-3f7216980dbc" xmlns="http://www.w3.org/2000/svg" xmlns:xlink="http://www.w3.org/1999/xlink" viewBox="0 0 512 512"><defs><linearGradient id="b00b1ec7-06ca-43a2-bcb7-972ea54f3976" x1="203.11" y1="119.81" x2="251.63" y2="119.81" gradientTransform="matrix(0.83, -0.34, -0.36, -0.78, 118.51, 429.77)" gradientUnits="userSpaceOnUse"><stop offset="0" stop-color="blue"/><stop offset="0.16" stop-color="#212fd2"/><stop offset="0.37" stop-color="#47649e"/><stop offset="0.57" stop-color="#658e75"/><stop offset="0.74" stop-color="#7aad57"/><stop offset="0.89" stop-color="#87bf45"/><stop offset="1" stop-color="#8cc63f"/></linearGradient></defs><title>helicopter</title><polygon points="276.81 277.64 263.06 270.56 249.41 277.85 251.92 262.62 240.77 251.92 256.07 249.59 262.82 235.69 269.77 249.48 285.09 251.58 274.09 262.44 276.81 277.64" style="stroke:#000;stroke-miterlimit:10;fill:url(#b00b1ec7-06ca-43a2-bcb7-972ea54f3976)"/><ellipse cx="262.93" cy="258.6" rx="22.16" ry="23.46" style="fill:none;stroke:#000;stroke-miterlimit:10;stroke-width:3px"/><rect x="423.96" y="54.62" width="35.17" height="35.17" rx="11.63" ry="11.63" style="fill:#00d409;stroke:#000;stroke-miterlimit:10;stroke-width:3px"/><rect x="52.99" y="61.51" width="37.24" height="37.24" rx="13.26" ry="13.26" style="fill:#00d409;stroke:#000;stroke-miterlimit:10;stroke-width:3px"/><rect x="291.9" y="192.15" width="37.24" height="37.24" rx="13.08" ry="13.08" style="fill:#00d409;stroke:#000;stroke-miterlimit:10;stroke-width:3px"/><rect x="147.32" y="198.44" width="37.24" height="37.24" rx="13.26" ry="13.26" style="fill:red;stroke:#000;stroke-miterlimit:10;stroke-width:3px"/><rect x="147.32" y="247.42" width="37.24" height="37.24" rx="13.26" ry="13.26" style="fill:red;stroke:#000;stroke-miterlimit:10;stroke-width:3px"/><rect x="382.43" y="375.54" width="37.24" height="37.24" rx="13.26" ry="13.26" style="fill:#00d409;stroke:#000;stroke-miterlimit:10;stroke-width:3px"/><rect x="100.24" y="101.31" width="37.24" height="37.24" rx="13.4" ry="13.4" style="fill:#00d409;stroke:#000;stroke-miterlimit:10;stroke-width:3px"/><rect x="200.9" y="287.97" width="37.24" height="37.24" rx="13.26" ry="13.26" style="fill:#00d409;stroke:#000;stroke-miterlimit:10;stroke-width:3px"/><rect x="200.9" y="196.43" width="37.24" height="37.24" rx="13.26" ry="13.26" style="fill:#00d409;stroke:#000;stroke-miterlimit:10;stroke-width:3px"/><rect x="292.93" y="285.97" width="35.17" height="35.17" rx="11.63" ry="11.63" style="fill:#00d409;stroke:#000;stroke-miterlimit:10;stroke-width:3px"/><rect x="245.36" y="150.5" width="35.17" height="35.17" rx="11.87" ry="11.87" style="fill:red;stroke:#000;stroke-miterlimit:10;stroke-width:3px"/><rect x="100.24" y="375.54" width="37.24" height="37.24" rx="13.26" ry="13.26" style="fill:#00d409;stroke:#000;stroke-miterlimit:10;stroke-width:3px"/><rect x="336.98" y="333.16" width="37.24" height="37.24" rx="13.26" ry="13.26" style="fill:#00d409;stroke:#000;stroke-miterlimit:10;stroke-width:3px"/><rect x="422.92" y="420.61" width="37.24" height="37.24" rx="13.26" ry="13.26" style="fill:#00d409;stroke:#000;stroke-miterlimit:10;stroke-width:3px"/><rect x="336.98" y="241.17" width="37.24" height="37.24" rx="13.26" ry="13.26" style="fill:red;stroke:#000;stroke-miterlimit:10;stroke-width:3px"/><rect x="378.69" y="100.28" width="37.24" height="37.24" rx="13.26" ry="13.26" style="fill:#00d409;stroke:#000;stroke-miterlimit:10;stroke-width:3px"/><rect x="336.98" y="146.15" width="37.24" height="37.24" rx="13.26" ry="13.26" style="fill:#00d409;stroke:#000;stroke-miterlimit:10;stroke-width:3px"/><rect x="291.9" y="146.15" width="37.24" height="37.24" rx="13.26" ry="13.26" style="fill:red;stroke:#000;stroke-miterlimit:10;stroke-width:3px"/><rect x="152.71" y="331.21" width="37.24" height="37.24" rx="13.26" ry="13.26" style="fill:#00d409;stroke:#000;stroke-miterlimit:10;stroke-width:3px"/><rect x="339.96" y="285.99" width="37.24" height="37.24" rx="13.26" ry="13.26" style="fill:red;stroke:#000;stroke-miterlimit:10;stroke-width:3px"/><rect x="340.48" y="192.15" width="37.24" height="37.24" rx="13.26" ry="13.26" style="fill:red;stroke:#000;stroke-miterlimit:10;stroke-width:3px"/><rect x="52.99" y="420.61" width="37.24" height="37.24" rx="13.26" ry="13.26" style="fill:#00d409;stroke:#000;stroke-miterlimit:10;stroke-width:3px"/><rect x="151.68" y="149.46" width="37.24" height="37.24" rx="13.26" ry="13.26" style="fill:#00d409;stroke:#000;stroke-miterlimit:10;stroke-width:3px"/><rect x="200.9" y="149.46" width="37.24" height="37.24" rx="13.26" ry="13.26" style="fill:red;stroke:#000;stroke-miterlimit:10;stroke-width:3px"/><rect x="147.32" y="289.32" width="37.24" height="37.24" rx="13.26" ry="13.26" style="fill:red;stroke:#000;stroke-miterlimit:10;stroke-width:3px"/><rect x="291.9" y="334.83" width="37.24" height="37.24" rx="13.26" ry="13.26" style="fill:red;stroke:#000;stroke-miterlimit:10;stroke-width:3px"/><rect x="244.31" y="334.83" width="37.24" height="37.24" rx="13.26" ry="13.26" style="fill:red;stroke:#000;stroke-miterlimit:10;stroke-width:3px"/><rect x="200.9" y="338.3" width="37.24" height="37.24" rx="13.26" ry="13.26" style="fill:red;stroke:#000;stroke-miterlimit:10;stroke-width:3px"/><rect width="512" height="512" style="fill:none"/></svg>