<svg id="81102c49-31c1-4499-89b3-f18dbc95b4cd" data-name="9c9ba0ad-dfca-4ee1-80ca-1a32da78946b" xmlns="http://www.w3.org/2000/svg" xmlns:xlink="http://www.w3.org/1999/xlink" viewBox="0 0 512 512"><defs><linearGradient id="9bfd44a7-cdeb-45f1-b64c-382be545e80e" x1="160.73" y1="-92.59" x2="209.25" y2="-92.59" gradientTransform="matrix(0.83, -0.34, -0.36, -0.78, 71.62, 245.81)" gradientUnits="userSpaceOnUse"><stop offset="0" stop-color="blue"/><stop offset="0.16" stop-color="#212fd2"/><stop offset="0.37" stop-color="#47649e"/><stop offset="0.57" stop-color="#658e75"/><stop offset="0.74" stop-color="#7aad57"/><stop offset="0.89" stop-color="#87bf45"/><stop offset="1" stop-color="#8cc63f"/></linearGradient></defs><title>sniper</title><polygon points="271.2 273.77 257.45 266.69 243.8 273.98 246.31 258.74 235.16 248.05 250.46 245.71 257.21 231.81 264.16 245.6 279.49 247.71 268.48 258.57 271.2 273.77" style="stroke:#000;stroke-miterlimit:10;fill:url(#9bfd44a7-cdeb-45f1-b64c-382be545e80e)"/><ellipse cx="257.32" cy="254.72" rx="22.16" ry="23.46" style="fill:none;stroke:#000;stroke-miterlimit:10;stroke-width:3px"/><rect x="284.1" y="237.13" width="35.17" height="35.17" rx="11.63" ry="11.63" style="fill:#00d409;stroke:#000;stroke-miterlimit:10;stroke-width:3px"/><rect x="330.33" y="236.1" width="37.24" height="37.24" rx="13.26" ry="13.26" style="fill:#fc0;stroke:#000;stroke-miterlimit:10;stroke-width:3px"/><rect x="238.7" y="191.26" width="37.24" height="37.24" rx="13.26" ry="13.26" style="fill:#00d409;stroke:#000;stroke-miterlimit:10;stroke-width:3px"/><rect x="238.7" y="283.01" width="37.24" height="37.24" rx="13.26" ry="13.26" style="fill:#00d409;stroke:#000;stroke-miterlimit:10;stroke-width:3px"/><rect x="193.3" y="236.1" width="37.24" height="37.24" rx="13.26" ry="13.26" style="fill:#00d409;stroke:#000;stroke-miterlimit:10;stroke-width:3px"/><rect x="147.14" y="237.13" width="37.24" height="37.24" rx="13.26" ry="13.26" style="fill:#fc0;stroke:#000;stroke-miterlimit:10;stroke-width:3px"/><rect x="374.12" y="237.13" width="37.24" height="37.24" rx="13.26" ry="13.26" style="fill:red;stroke:#000;stroke-miterlimit:10;stroke-width:3px"/><rect x="238.7" y="146.62" width="37.24" height="37.24" rx="13.26" ry="13.26" style="fill:red;stroke:#000;stroke-miterlimit:10;stroke-width:3px"/><rect x="100.99" y="237.13" width="37.24" height="37.24" rx="13.26" ry="13.26" style="fill:red;stroke:#000;stroke-miterlimit:10;stroke-width:3px"/><rect x="238.7" y="329.29" width="37.24" height="37.24" rx="13.26" ry="13.26" style="fill:red;stroke:#000;stroke-miterlimit:10;stroke-width:3px"/><rect width="512" height="512" style="fill:none"/></svg>