<svg id="8836e97a-1989-431a-bc1b-090d8d9538b0" data-name="2e8d91bb-1d4d-47f0-b705-e323b61266aa" xmlns="http://www.w3.org/2000/svg" xmlns:xlink="http://www.w3.org/1999/xlink" viewBox="0 0 512 512"><defs><linearGradient id="d0f62e13-3a1a-49f1-b867-030bddd6800f" x1="140.25" y1="-205.1" x2="188.77" y2="-205.1" gradientTransform="matrix(0.83, -0.34, -0.36, -0.78, 44.96, 151.45)" gradientUnits="userSpaceOnUse"><stop offset="0" stop-color="blue"/><stop offset="0.16" stop-color="#212fd2"/><stop offset="0.37" stop-color="#47649e"/><stop offset="0.57" stop-color="#658e75"/><stop offset="0.74" stop-color="#7aad57"/><stop offset="0.89" stop-color="#87bf45"/><stop offset="1" stop-color="#8cc63f"/></linearGradient></defs><title>rocketlauncher</title><polygon points="268.05 274.13 254.3 267.05 240.65 274.34 243.16 259.1 232 248.41 247.3 246.07 254.06 232.17 261 245.96 276.33 248.07 265.32 258.93 268.05 274.13" style="stroke:#000;stroke-miterlimit:10;fill:url(#d0f62e13-3a1a-49f1-b867-030bddd6800f)"/><ellipse cx="254.17" cy="255.08" rx="22.16" ry="23.46" style="fill:none;stroke:#000;stroke-miterlimit:10;stroke-width:3px"/><rect x="280.95" y="237.5" width="35.17" height="35.17" rx="11.63" ry="11.63" style="fill:#00d409;stroke:#000;stroke-miterlimit:10;stroke-width:3px"/><rect x="327.18" y="236.46" width="37.24" height="37.24" rx="13.26" ry="13.26" style="fill:#00d409;stroke:#000;stroke-miterlimit:10;stroke-width:3px"/><rect x="235.54" y="191.62" width="37.24" height="37.24" rx="13.26" ry="13.26" style="fill:#00d409;stroke:#000;stroke-miterlimit:10;stroke-width:3px"/><rect x="235.54" y="283.37" width="37.24" height="37.24" rx="13.26" ry="13.26" style="fill:#00d409;stroke:#000;stroke-miterlimit:10;stroke-width:3px"/><rect x="190.14" y="236.46" width="37.24" height="37.24" rx="13.26" ry="13.26" style="fill:#00d409;stroke:#000;stroke-miterlimit:10;stroke-width:3px"/><rect x="143.99" y="237.5" width="37.24" height="37.24" rx="13.26" ry="13.26" style="fill:#00d409;stroke:#000;stroke-miterlimit:10;stroke-width:3px"/><rect x="331.56" y="191.62" width="37.24" height="37.24" rx="13.26" ry="13.26" style="fill:red;stroke:#000;stroke-miterlimit:10;stroke-width:3px"/><rect x="327.18" y="281.3" width="37.24" height="37.24" rx="13.26" ry="13.26" style="fill:red;stroke:#000;stroke-miterlimit:10;stroke-width:3px"/><rect x="143.99" y="191.62" width="37.24" height="37.24" rx="13.26" ry="13.26" style="fill:red;stroke:#000;stroke-miterlimit:10;stroke-width:3px"/><rect x="143.99" y="283.37" width="37.24" height="37.24" rx="13.26" ry="13.26" style="fill:red;stroke:#000;stroke-miterlimit:10;stroke-width:3px"/><rect width="512" height="512" style="fill:none"/></svg>