<svg id="344d3ba5-ec50-457e-b7d4-bed2d180039f" data-name="3f25e0bc-42b6-4743-9149-31a90f173e4b" xmlns="http://www.w3.org/2000/svg" xmlns:xlink="http://www.w3.org/1999/xlink" viewBox="0 0 512 512"><defs><linearGradient id="5d70fc33-8774-4ee9-b439-259f42526835" x1="183.19" y1="6.73" x2="231.71" y2="6.73" gradientTransform="matrix(0.83, -0.34, -0.36, -0.78, 89.73, 327.55)" gradientUnits="userSpaceOnUse"><stop offset="0" stop-color="blue"/><stop offset="0.16" stop-color="#212fd2"/><stop offset="0.37" stop-color="#47649e"/><stop offset="0.57" stop-color="#658e75"/><stop offset="0.74" stop-color="#7aad57"/><stop offset="0.89" stop-color="#87bf45"/><stop offset="1" stop-color="#8cc63f"/></linearGradient></defs><title>tank</title><polygon points="272.2 270.41 258.45 263.33 244.8 270.62 247.31 255.38 236.16 244.69 251.46 242.35 258.21 228.45 265.16 242.24 280.49 244.34 269.48 255.21 272.2 270.41" style="stroke:#000;stroke-miterlimit:10;fill:url(#5d70fc33-8774-4ee9-b439-259f42526835)"/><ellipse cx="258.32" cy="251.36" rx="22.16" ry="23.46" style="fill:none;stroke:#000;stroke-miterlimit:10;stroke-width:3px"/><rect x="375.38" y="233.77" width="35.17" height="35.17" rx="11.63" ry="11.63" style="fill:#fc0;stroke:#000;stroke-miterlimit:10;stroke-width:3px"/><rect x="331.33" y="232.74" width="37.24" height="37.24" rx="13.26" ry="13.26" style="fill:#fc0;stroke:#000;stroke-miterlimit:10;stroke-width:3px"/><rect x="239.7" y="187.9" width="37.24" height="37.24" rx="13.26" ry="13.26" style="fill:#00d409;stroke:#000;stroke-miterlimit:10;stroke-width:3px"/><rect x="101.99" y="236.16" width="37.24" height="37.24" rx="13.26" ry="13.26" style="fill:#fc0;stroke:#000;stroke-miterlimit:10;stroke-width:3px"/><rect x="147.07" y="236.16" width="37.24" height="37.24" rx="13.26" ry="13.26" style="fill:#fc0;stroke:#000;stroke-miterlimit:10;stroke-width:3px"/><rect x="287.29" y="230.91" width="37.24" height="37.24" rx="13.26" ry="13.26" style="fill:#00d409;stroke:#000;stroke-miterlimit:10;stroke-width:3px"/><rect x="238.66" y="279.65" width="37.24" height="37.24" rx="13.26" ry="13.26" style="fill:#00d409;stroke:#000;stroke-miterlimit:10;stroke-width:3px"/><rect x="239.7" y="325.93" width="37.24" height="37.24" rx="13.26" ry="13.26" style="fill:#fc0;stroke:#000;stroke-miterlimit:10;stroke-width:3px"/><rect x="192.15" y="236.16" width="37.24" height="37.24" rx="13.26" ry="13.26" style="fill:#00d409;stroke:#000;stroke-miterlimit:10;stroke-width:3px"/><rect x="239.7" y="98.62" width="35.17" height="35.17" rx="11.63" ry="11.63" style="fill:#fc0;stroke:#000;stroke-miterlimit:10;stroke-width:3px"/><rect x="240.73" y="143.26" width="35.17" height="35.17" rx="11.63" ry="11.63" style="fill:#fc0;stroke:#000;stroke-miterlimit:10;stroke-width:3px"/><rect x="239.7" y="376.1" width="37.24" height="37.24" rx="13.26" ry="13.26" style="fill:#fc0;stroke:#000;stroke-miterlimit:10;stroke-width:3px"/><rect width="512" height="512" style="fill:none"/></svg>