<svg id="6e4dbb66-51d1-485a-8497-b82a0ce47653" data-name="Calque 1" xmlns="http://www.w3.org/2000/svg" viewBox="0 0 1457.6 350.57"><title>afkaarlogo</title><path d="M915.62,883V710l82.48-1.46v29.93H941.17l1.46,46,52.55-.69L993,810.06l-50.37.68V883Z" transform="translate(-771.09 -686.78)"/><path d="M1023.65,710h26.28v79.93L1098.83,710H1128l-48.18,79.93L1128,883h-24.82l-38.69-72.26h-14.6L1049.2,883h-25.55Z" transform="translate(-771.09 -686.78)"/><path d="M852.85,883h-38l20.44-63.5Z" transform="translate(-771.09 -686.78)" fill="#3e52a3"/><path d="M798.1,883h-27l46.68-171.94,32.88-.32,48.18,173L871.09,883,833.87,742.13Z" transform="translate(-771.09 -686.78)"/><path d="M1213.21,883h-38l20.44-63.5Z" transform="translate(-771.09 -686.78)" fill="#3e52a3"/><path d="M1158.47,883h-27l46.68-171.94,32.88-.32,48.18,173-27.74-.73-37.23-140.88Z" transform="translate(-771.09 -686.78)"/><path d="M1338,883h-38l20.44-63.5Z" transform="translate(-771.09 -686.78)" fill="#3e52a3"/><path d="M1283.28,883h-27L1303,711.07l32.88-.32,48.18,173-27.74-.73-37.23-140.88Z" transform="translate(-771.09 -686.78)"/><path d="M1087.88,948.7" transform="translate(-771.09 -686.78)" fill="#231f20"/><path d="M1467,803.33c12.95-9,21.59-25.17,21.59-43.68,0-28.22-20.1-51.09-44.89-51.09a39.81,39.81,0,0,0-11.37,1.66l-13.82.53h-19.71v173h27.74v-73h17.15l30.29,73,27-.73Zm-3.38-43.86c0,14.4-14.51,26.07-32.4,26.07a40.45,40.45,0,0,1-4.66-.27v-49.8l17.15,0C1455.42,739.35,1463.64,748.64,1463.64,759.48Z" transform="translate(-771.09 -686.78)"/><path d="M2228.7,904.78H1547.57l-48.23-97.1a76.71,76.71,0,0,0,23.32-22.59,74.25,74.25,0,0,0,11.93-31.43,64.47,64.47,0,0,0-2.44-27.85c-8.85-26.5-35.5-37.27-40.08-39H2228.7Z" transform="translate(-771.09 -686.78)" fill="#0f4d92"/><path d="M1627.7,816.29l-21-3-1-26,54,2-1,90-19,5h-42s-30,3.4-47-44.26c-6.86-21.16,0-66.74,0-66.74,13-56,52.62-56,52.62-56h55.38L1657,742.38a127.16,127.16,0,0,1-20.08.16c-13.35-1-18.32-3.49-27.25-1.25a37.53,37.53,0,0,0-14,7c-10.55,8.16-14,19.43-16,26-8,26.27,1.59,52.59,5,61,2.91,13.25,8.73,18.41,12.5,20.66,0,0,4.75,2.84,29.5,3.34h0Z" transform="translate(-771.09 -686.78)" fill="#fff"/><path d="M1763.54,887h-38l20.44-63.5Z" transform="translate(-771.09 -686.78)" fill="#fff"/><path d="M1708.8,887h-27L1728.48,715l32.88-.32,48.18,173-27.74-.73-37.23-140.88Z" transform="translate(-771.09 -686.78)" fill="#fff"/><path d="M1819.16,887.69h25.54V750.29L1883,887.69h27.67l36.2-132.4V887l28.59.31-.78-170h-43l-34.77,137.92-34-137.92h-43.8Z" transform="translate(-771.09 -686.78)" fill="#fff"/><path d="M2006.75,717.29c.95,6,1.09,28,1.09,28h78.69v-28Z" transform="translate(-771.09 -686.78)" fill="#fff"/><rect x="1254.63" y="103.51" width="45.99" height="25" fill="#fff"/><polygon points="1315.43 200.18 1315.43 168.43 1236.75 168.43 1236.75 198.32 1315.43 200.18" fill="#fff"/><path d="M2197.7,725.29c-10.48-2.66-19.68-4.7-27.25-6.25-8.58-1.76-13.74-2.63-20.5-2a55.67,55.67,0,0,0-12.75,2.75,40.9,40.9,0,0,0-11.5,5.5,34.6,34.6,0,0,0-11.54,14.8c-2.46,6-2.46,12.56-2.46,23.2,0,19,17,32.49,17,32.49l39,32.51c1.53,1.7,6.46,7.62,6.25,16-.05,2.07-.17,7.11-3.75,11.25-2.6,3-5.78,4.08-9.25,5.25a38.9,38.9,0,0,1-12.45,1.86c-4.49,0-7.2-.57-20.8-3.36l-9.89-2-.44,26.36c6.33,2.43,23.24,8.21,42.06,5.89,6.73-.83,18.94-2.34,29.3-11.22h0a47.5,47.5,0,0,0,14.45-18.54,46.14,46.14,0,0,0,3.78-21.46,47.16,47.16,0,0,0-5.75-18.5c-4.29-8-9.88-13.56-21.75-22.75-25.68-19.89-34.28-20.55-36.75-30.75-1.75-7.23.13-16.91,6-21a15.13,15.13,0,0,1,10-2.25l34.6,4.57Z" transform="translate(-771.09 -686.78)" fill="#fff"/><polygon points="44.48 228.22 44.48 318.22 559.9 318.22 559.9 322.89 39.24 322.89 39.24 228.22 44.48 228.22" fill="#2b388f"/><polygon points="1402.01 228.22 1402.01 318.22 907.9 318.22 907.9 322.89 1407.03 322.89 1407.03 228.22 1402.01 228.22" fill="#2b388f"/><text transform="translate(616.89 335.24)" font-size="50" fill="#2b388f" font-family="FranklinGothic-Heavy, Franklin Gothic Heavy"><tspan letter-spacing="-0.02em">B</tspan><tspan x="31.27" y="0">Y GRIMES</tspan></text></svg>