<svg id="ed913e6b-21e3-4f53-8bad-8e9c48bdde87" data-name="Calque 1" xmlns="http://www.w3.org/2000/svg" viewBox="0 0 57.72 56.95"><title>homebuttonrotate</title><path d="M107.19,93.5A24,24,0,0,0,117.81,91c2-1,3.35-1.55,4.48-3a30.21,30.21,0,0,1,2-2.58c1.07-1.17,1.62-1.43,2.34-2.16A9.42,9.42,0,0,0,129,78.83h0a19.63,19.63,0,0,0,1.77-7.33c.09-2.29.27-6.61-2.38-9.7-.83-1-1.08-.82-3.45-3.13-1.76-1.73-2.17-2.35-3.36-3.53a22.18,22.18,0,0,0-5.63-4.4,20.32,20.32,0,0,0-8.74-2.17c-1,0-2,.06-2,.06a25.44,25.44,0,0,0-3.94.67c-2.11.55-6.54,2.67-11.38,6.78h4.62a41.64,41.64,0,0,0-2.86,3.76c-.27.4-.87,1.31-1.54,2.46a42.86,42.86,0,0,0-3.17,6.83,71.64,71.64,0,0,1-5-6.67c-.67-1-1.23-1.95-1.32-2.11-1-1.66-1.79-3.13-2.37-4.29H83a24.38,24.38,0,0,1,9.89-10.61c2.18-1.21,5.44-3,9.5-2.73,1.71.11,2.32.51,4.8.56,3.64.08,4.35-.73,6.54-.33,1.68.31,2.45,1,5.67,3.32,4.75,3.42,5.63,3.76,6.92,4.78a28,28,0,0,1,9.6,20c.27,12.7-9.68,23.21-19.93,26.89a26.79,26.79,0,0,1-17.76.38c-2.91-1-9-3.6-12.88-9.64-1.51-2.36-2.56-5.07-2.12-5.36.91-.6,7.51,9.53,9.67,8.5,1.15-.55.61-4.06.05-6.66a14.68,14.68,0,0,0,7.57,7.42A16.69,16.69,0,0,0,107.19,93.5Z" transform="translate(-78.2 -42.71)" fill="#00b7d4"/></svg>