<?xml version="1.0" encoding="utf-8"?>
<!-- Generator: Adobe Illustrator 21.0.0, SVG Export Plug-In . SVG Version: 6.00 Build 0)  -->
<svg version="1.1" id="_x33_e814877-f6a6-4956-9472-343e0f091eca"
	 xmlns="http://www.w3.org/2000/svg" xmlns:xlink="http://www.w3.org/1999/xlink" x="0px" y="0px" viewBox="0 0 357.8 101.5"
	 style="enable-background:new 0 0 357.8 101.5;" xml:space="preserve">
<style type="text/css">
	.st0{fill:none;stroke:#FFFFFF;stroke-width:5;stroke-miterlimit:10;}
	.st1{fill:url(#SVGID_1_);stroke:#FFFFFF;stroke-width:4;stroke-miterlimit:10;}
	.st2{fill:#3FA6FF;stroke:#FFFFFF;stroke-width:3;stroke-miterlimit:10;}
	.st3{fill:url(#SVGID_2_);stroke:#FFFFFF;stroke-width:0.5;stroke-miterlimit:10;}
</style>
<title>homebutton</title>
<circle class="st0" cx="39" cy="39" r="36.5"/>
<radialGradient id="SVGID_1_" cx="286.2828" cy="-129.2104" r="112.96" gradientTransform="matrix(0.99 -1.000000e-02 1.000000e-02 -0.86 -86.91 -25.71)" gradientUnits="userSpaceOnUse">
	<stop  offset="0" style="stop-color:#FFFFFF"/>
	<stop  offset="1" style="stop-color:#000000"/>
</radialGradient>
<path class="st1" d="M354.4,83.8C350.5,77,346,71.5,341.6,72c-8.4,1-9.9,24.5-16.5,24.7c-3.1,0.1-5.9-5.1-7.9-10.2
	c-18.3,0.9-45.6,1.6-79,0.5c-29.2-1-41.9-2.7-65.3-3.6c-33.1-1.2-66.2-0.1-99.1,3.3c-53.7,32.4-23.9-6.1-34.8-9.9
	c5-3.4,12.5-7.3,21.3-6.4c5.6,0.6,8.1,2.9,13.9,4.6s14.4,2.7,26.6-1.2c21.3,1.3,42.8,2.5,64.5,3.6C229.5,80.6,292.5,82.7,354.4,83.8
	z"/>
<circle class="st2" cx="39" cy="39" r="12"/>
<radialGradient id="SVGID_2_" cx="28.83" cy="39" r="0" gradientTransform="matrix(1 0 0 -1 -82.62 28.64)" gradientUnits="userSpaceOnUse">
	<stop  offset="0" style="stop-color:#ED1C24"/>
	<stop  offset="0.21" style="stop-color:#EA1C26"/>
	<stop  offset="0.35" style="stop-color:#E21B2F"/>
	<stop  offset="0.47" style="stop-color:#D3193C"/>
	<stop  offset="0.57" style="stop-color:#BE1650"/>
	<stop  offset="0.67" style="stop-color:#A21369"/>
	<stop  offset="0.76" style="stop-color:#810F88"/>
	<stop  offset="0.85" style="stop-color:#590AAD"/>
	<stop  offset="0.93" style="stop-color:#2C05D7"/>
	<stop  offset="1" style="stop-color:#0000FF"/>
</radialGradient>
<path class="st3" d="M-53.8-10.4"/>
</svg>
