<svg id="3e814877-f6a6-4956-9472-343e0f091eca" data-name="Calque 1" xmlns="http://www.w3.org/2000/svg" xmlns:xlink="http://www.w3.org/1999/xlink" viewBox="0 0 357.84 101.5"><defs><radialGradient id="58093968-bead-4902-a7f1-366de1d74966" cx="277.75" cy="156.46" r="112.96" gradientTransform="matrix(0.99, -0.01, -0.01, 0.86, 4.43, 26.13)" gradientUnits="userSpaceOnUse"><stop offset="0" stop-color="#fff"/><stop offset="1"/></radialGradient><radialGradient id="45c7e92b-b63f-4cd7-8266-417fb820e541" cx="117.47" cy="110.67" r="7.23" gradientTransform="translate(-156.84 -145.51) scale(1.67 1.67)" xlink:href="#58093968-bead-4902-a7f1-366de1d74966"/><radialGradient id="fc1623c6-af3b-46bf-a5b3-874ed7abdafb" cx="28.83" cy="65" r="0" gradientUnits="userSpaceOnUse"><stop offset="0" stop-color="#ed1c24"/><stop offset="0.21" stop-color="#ea1c26"/><stop offset="0.35" stop-color="#e21b2f"/><stop offset="0.47" stop-color="#d3193c"/><stop offset="0.57" stop-color="#be1650"/><stop offset="0.67" stop-color="#a21369"/><stop offset="0.76" stop-color="#810f88"/><stop offset="0.85" stop-color="#590aad"/><stop offset="0.93" stop-color="#2c05d7"/><stop offset="1" stop-color="blue"/></radialGradient></defs><title>homebutton</title><circle cx="38.99" cy="38.99" r="36.49" fill="none" stroke="#fff" stroke-miterlimit="10" stroke-width="5"/><path d="M437,159.11c-3.89-6.71-8.43-12.29-12.81-11.74-8.36,1-9.88,24.53-16.46,24.7-3.13.08-5.89-5.12-7.9-10.21-18.29.85-45.63,1.6-79,.47-29.24-1-41.92-2.72-65.32-3.63A699.22,699.22,0,0,0,156.45,162c-53.68,32.41-23.88-6.15-34.84-9.94,5-3.4,12.54-7.33,21.25-6.36,5.61.62,8.14,2.89,13.85,4.55s14.37,2.66,26.61-1.21q32,2,64.52,3.63Q344.23,157.54,437,159.11Z" transform="translate(-82.62 -75.36)" stroke="#fff" stroke-miterlimit="10" stroke-width="4" fill="url(#58093968-bead-4902-a7f1-366de1d74966)"/><circle cx="38.99" cy="38.99" r="12.05" stroke="#fff" stroke-miterlimit="10" stroke-width="3" fill="url(#45c7e92b-b63f-4cd7-8266-417fb820e541)"/><path d="M28.83,65" transform="translate(-82.62 -75.36)" stroke="#fff" stroke-miterlimit="10" stroke-width="0.5" fill="url(#fc1623c6-af3b-46bf-a5b3-874ed7abdafb)"/></svg>