<?xml version="1.0" encoding="iso-8859-1"?>
<!-- Generator: Adobe Illustrator 16.0.0, SVG Export Plug-In . SVG Version: 6.00 Build 0)  -->
<!DOCTYPE svg PUBLIC "-//W3C//DTD SVG 1.1//EN" "http://www.w3.org/Graphics/SVG/1.1/DTD/svg11.dtd">
<svg version="1.1" id="Capa_1" xmlns="http://www.w3.org/2000/svg" xmlns:xlink="http://www.w3.org/1999/xlink" x="0px" y="0px"
	 width="569.493px" height="569.493px" viewBox="0 0 569.493 569.493" style="enable-background:new 0 0 569.493 569.493;"
	 xml:space="preserve">
<g>
	<g>
		<path d="M18.752,376.295h177.37v16.451h-44.835c-5.067,0-9.18,4.107-9.18,9.18c0,5.074,4.113,9.18,9.18,9.18h165.007
			c0.624-3.084,1.334-6.145,2.136-9.18c0.814-3.09,1.714-6.15,2.687-9.18c1.806-5.617,3.855-11.119,6.102-16.451
			c1.561-3.695,3.226-7.275,4.939-10.795c2.674-5.508,5.495-10.771,8.402-15.766H44.027c-9.37,0-16.965-6.982-16.965-15.594v-231.33
			c0-8.611,7.595-15.594,16.965-15.594h480.744c9.37,0,16.965,6.983,16.965,15.594v229.964c11.322,5.441,21.971,15.02,27.032,25.014
			c0-0.086,0.024-0.16,0.024-0.246V79.402c0-10.355-8.396-18.751-18.752-18.751H18.752C8.396,60.651,0,69.047,0,79.402v278.141
			C0.006,367.899,8.396,376.295,18.752,376.295z"/>
		<path d="M333.883,376.295c-2.319,5.312-4.443,10.809-6.315,16.451c-1.011,3.023-1.94,6.084-2.785,9.18
			c-0.826,3.029-1.566,6.09-2.216,9.18c-0.146,0.699-0.336,1.377-0.471,2.076c-5.673,29.045,1.671,37.436,13.28,37.436
			c7.626,0,17.093-3.623,25.912-7.381c14.565-6.213,23.733-13.127,42.148-13.127c9.719,0,22.014,1.928,39.039,6.896
			c49.291,14.395,51.427,28.979,65.068,48.947c7.662,11.219,16.566,22.889,26.083,22.889c7.43,0,15.239-7.117,23.122-27.123
			c17.233-43.734,13.427-94.449,9.002-113.992c-0.189-0.844-0.379-1.725-0.575-2.447c-2.595-9.799-13.188-20.166-24.431-26.084
			c-5.753-3.029-11.671-4.908-16.787-4.908c-2.729,0-5.227,0.527-7.351,1.689c-3.818,2.094-8.88,2.852-14.198,2.852
			c-13.96,0-29.737-5.213-29.737-5.213s-30.716-7.811-38.299-21.652c-3.886-7.094-15.184-10.516-27.062-10.516
			c-11.31,0-23.146,3.098-29.639,9.07c-6.818,6.268-18.752,20.447-30.037,39.223c-2.98,4.951-5.894,10.232-8.673,15.766
			C337.193,369,335.498,372.6,333.883,376.295z M523.621,423.463c1.579-5.404,7.234-8.502,12.638-6.922
			c5.404,1.578,8.501,7.234,6.922,12.637c-1.579,5.404-7.233,8.502-12.632,6.922C525.145,434.516,522.049,428.86,523.621,423.463z
			 M489.771,437.075c1.579-5.398,7.233-8.502,12.632-6.922c5.403,1.578,8.501,7.232,6.922,12.637
			c-1.579,5.398-7.234,8.502-12.632,6.922C491.295,448.133,488.192,442.471,489.771,437.075z M374.061,365.469l2.448-8.377
			c0.594-2.027,2.711-3.189,4.736-2.596l14.235,4.156l2.607-8.924l1.555-5.312c0.594-2.025,2.711-3.188,4.736-2.594l8.385,2.447
			c2.025,0.594,3.188,2.711,2.595,4.736l-0.208,0.723l-3.947,13.514l14.235,4.154c2.025,0.594,3.188,2.711,2.595,4.738l-1.212,4.154
			l-1.236,4.223c-0.594,2.025-2.711,3.189-4.737,2.596l-14.234-4.156l-4.027,13.789l-0.129,0.447
			c-0.593,2.025-2.711,3.188-4.736,2.594l-8.379-2.447c-0.428-0.123-0.789-0.35-1.132-0.594c-1.279-0.918-1.934-2.547-1.463-4.143
			l3.593-12.309l0.563-1.928l-14.235-4.154C374.63,369.62,373.467,367.495,374.061,365.469z"/>
		<path d="M220.247,316.596V120.352h-30.398c-4.266,11.909-12.13,22.332-23.599,31.261c-11.469,8.936-22.087,15-31.867,18.201
			v33.997c18.574-6.132,34.707-15.6,48.397-28.397v141.183H220.247L220.247,316.596z"/>
		<path d="M411.087,230.805c6.707-4.664,12.239-11.089,16.597-19.266c4.352-8.176,6.53-18.262,6.53-30.263
			c0-15.557-3.775-28.244-11.334-38.061c-7.559-9.823-16.935-16.2-28.134-19.131c-7.289-1.958-22.932-2.932-46.928-2.932h-63.312
			v195.443h39.462v-73.729h25.729c17.864,0,31.506-0.93,40.93-2.797C397.556,238.56,404.379,235.469,411.087,230.805z
			 M376.76,206.607c-5.245,2.044-15.643,3.066-31.194,3.066h-21.597v-55.459h19.063c14.223,0,23.685,0.447,28.396,1.334
			c6.401,1.156,11.689,4.045,15.863,8.666c4.18,4.621,6.267,10.49,6.267,17.601c0,5.777-1.486,10.845-4.467,15.196
			C386.117,201.362,382.004,204.562,376.76,206.607z"/>
	</g>
</g>
<g>
</g>
<g>
</g>
<g>
</g>
<g>
</g>
<g>
</g>
<g>
</g>
<g>
</g>
<g>
</g>
<g>
</g>
<g>
</g>
<g>
</g>
<g>
</g>
<g>
</g>
<g>
</g>
<g>
</g>
</svg>
